<?xml version="1.0" encoding="utf-8"?>
<!DOCTYPE svg PUBLIC "-//W3C//DTD SVG 1.1//EN" "http://www.w3.org/Graphics/SVG/1.1/DTD/svg11.dtd">
<svg version="1.1" id="图形" xmlns="http://www.w3.org/2000/svg" xmlns:xlink="http://www.w3.org/1999/xlink" x="0px" y="0px" width="1024px" height="1024px" viewBox="0 0 1024 1024" enable-background="new 0 0 1024 1024" xml:space="preserve">
  <path fill="#272636" d="M890.88 748.512q28.672 0 52.736-10.752t41.984-29.184 28.16-43.52 10.24-53.76l0-620.544q0-28.672-10.24-53.76t-28.16-43.52-41.984-29.184-52.736-10.752l-689.152 0q-28.672 0-53.76 10.752t-43.52 29.184-29.184 43.52-10.752 53.76l0 620.544q0 28.672 10.752 53.76t29.184 43.52 43.52 29.184 53.76 10.752l689.152 0zM256 557.024q9.216 0 27.648-0.512t43.008-0.512l52.224 0 55.296 0q64.512 0 141.312 1.024l0 63.488-126.976 0 0 64.512-64.512 0 0-64.512-128 0 0-63.488zM377.856 451.552q-8.192 15.36-15.36 29.696-6.144 12.288-12.288 25.088t-9.216 20.992l-58.368-21.504 32.768-76.8zM254.976 55.264l101.376 143.36-66.56 26.624-98.304-145.408zM448.512 237.536l126.976 0 0 62.464-45.056 0-81.92 0 0 64.512q23.552 0 46.08-0.512t40.96-0.512l40.96 0 0 63.488-66.56 0q-19.456 0-40.96 1.024l68.608 65.536-68.608 32.768-20.48-98.304-257.024 0 0-63.488 35.84 0 47.104 0 53.248 0 56.32 0 0-64.512-128 0 0-62.464 40.96 0q18.432 0 40.96-0.512t46.08 0.512l0-129.024q0-16.384-2.048-27.136t-10.24-15.36-25.088-4.608-47.616 5.12q25.6-31.744 27.648-71.68 13.312 2.048 34.304 1.024t40.448 1.536 33.28 12.8 13.824 34.816l0 192.512zM568.32 126.944q-16.384 19.456-29.696 37.888-11.264 15.36-23.552 30.208t-18.432 23.04l-46.08-30.72 64.512-98.304zM896 432.096q-20.48 1.024-53.248 0.512t-63.488-1.536q-36.864-1.024-75.776-3.072l0 129.024q49.152 0 85.504 4.608t59.904 9.728q27.648 6.144 46.08 14.336-18.432 27.648-29.696 46.08-5.12 8.192-9.728 15.36t-7.68 11.264-3.584 4.608 1.536-4.608q-21.504-16.384-57.344-24.064t-69.632-10.752-57.344-3.072-21.504 0q1.024-16.384 1.536-44.032t0-77.824-1.024-129.024-0.512-196.608q0-13.312-3.072-33.28t-10.24-39.936-19.968-35.328-31.232-19.456q12.288-3.072 21.504-11.776t16.896-18.432 13.824-19.456 12.288-14.848q12.288 18.432 23.552 42.496t20.48 50.176 14.336 52.224 5.12 47.616l0 40.96 0 43.008 0 47.104 0 60.416 64.512 0 0-384 63.488 0 0 384q23.552-1.024 35.328-0.512t29.184-3.584l0 71.68z" transform="translate(0, 812) scale(1, -1)"/>
</svg>
