<?xml version="1.0" encoding="utf-8"?>
<!DOCTYPE svg PUBLIC "-//W3C//DTD SVG 1.1//EN" "http://www.w3.org/Graphics/SVG/1.1/DTD/svg11.dtd">
<svg version="1.1" id="图形" xmlns="http://www.w3.org/2000/svg" xmlns:xlink="http://www.w3.org/1999/xlink" x="0px" y="0px" width="1024px" height="1024px" viewBox="0 0 1024 1024" enable-background="new 0 0 1024 1024" xml:space="preserve">
  <path fill="#272636" d="M398.548233 550.86533q0 11.73639-1.956065 22.983763t-6.846227 22.005731q-4.890162 6.846227-9.291309 7.335244t-8.313276-1.467049q-5.868195-2.934097-10.758357-12.714422t-4.890162-27.384909q0.978032-122.254059-1.467049-248.420248t-4.401146-247.442216l-158.441261 0 0 485.104107q0 33.253104-15.64852 57.2149t-57.703916 23.961796l-17.604585 0q26.406877 30.319007 55.258835 44.011461t71.885387 13.692455q28.362942 0 52.813754-10.269341t42.055396-28.851958l3.91213 2.934097 4.890162 3.91213q25.428844 19.560649 52.813754 25.917861t49.879656 6.357211q27.384909 0 51.835721-10.269341t43.033429-28.851958l2.934097 2.934097 4.890162 3.91213q25.428844 19.560649 52.813754 25.917861t49.879656 6.357211q25.428844 0 48.412607-8.802292t40.099331-24.450812 27.873926-37.165234 10.758357-47.923591q1.956065-60.638013 0-147.682904 5.868195 16.626552 14.670487 34.231137t21.027698 32.275072 27.873926 23.961796 36.187202 9.291309q16.626552 0 39.610315-4.401146t44.011461-30.319007 35.698185-81.665712 14.670487-157.463228q0-74.330468-17.115568-133.012416t-43.033429-103.182426-56.236867-76.286533-56.725883-52.324737q6.846227-2.934097 13.692455-3.91213t14.670487-0.978032q18.582617 0 34.231137 5.868195t28.362942 13.692455q13.692455 8.802292 26.406877 20.538682l0-55.747851q-5.868195-15.64852-23.472779-27.384909-14.670487-10.758357-42.055396-19.071633t-74.330468-8.313276q-51.835721 0-89.978988 16.626552-28.362942-9.780325-57.703916-16.626552t-53.791786-11.73639q-28.362942-5.868195-55.747851-9.780325l0 60.638013q13.692455 0 30.319007 3.91213 13.692455 2.934097 32.764088 7.82426t41.56638 14.670487q-13.692455 18.582617-22.494747 41.56638t-14.181471 47.434575-8.313276 50.368672-3.91213 51.346705l0 16.626552 0 468.477555q0 11.73639-1.956065 22.983763t-6.846227 22.005731q-3.91213 6.846227-8.313276 7.82426t-8.313276-0.978032q-4.890162-2.934097-10.269341-11.247373t-6.357211-23.961796q0.978032-55.747851 0.489016-120.787011t-1.467049-131.545368-2.445081-131.056351-2.445081-118.341929l-157.463228 0 0 485.104107zM765.310411 269.191977l0-3.91213 0-16.626552q-0.978032-54.769819-1.956065-101.715377t-0.978032-81.176695q0-32.275072 2.445081-58.192932t7.335244-45.47851q37.165234 42.055396 61.616046 107.094556t24.450812 159.908309q0 89.978988-6.846227 133.990449t-16.626552 55.747851-21.516714-1.956065-22.494747-39.121299-17.604585-56.236867-7.82426-52.324737z" transform="translate(0, 812) scale(1, -1)"/>
</svg>
